<svg xmlns="http://www.w3.org/2000/svg" xmlns:xlink="http://www.w3.org/1999/xlink" xml:space="preserve" version="1.1" style="shape-rendering:geometricPrecision;text-rendering:geometricPrecision;image-rendering:optimizeQuality;" viewBox="0 0 60000 75000" x="0px" y="0px" fill-rule="evenodd" clip-rule="evenodd"><defs><style type="text/css">
   
    .fil0 {fill:black;fill-rule:nonzero}
   
  </style></defs><g><path class="fil0" d="M38844 27870c-82,-39 -187,-68 -298,-68 -77,0 -154,16 -225,55l0 460 522 -6 0 -441zm-6281 -15486c-81,-57 -101,-169 -44,-250 57,-81 169,-101 250,-44 619,437 1121,959 1523,1501 501,675 846,1381 1071,1992 34,93 -14,196 -107,231 -93,34 -196,-14 -231,-107 -215,-585 -544,-1259 -1022,-1902 -381,-513 -856,-1007 -1441,-1421zm5284 38844c528,361 1042,775 1415,1142 380,375 625,728 625,982 0,625 -1190,1140 -3114,1469 -1792,306 -4262,495 -6987,495 -2724,0 -5195,-189 -6987,-495 -1924,-329 -3114,-844 -3114,-1469 0,-268 404,-820 951,-1321 440,-403 981,-798 1473,-1004l4 11c378,-173 862,-326 1434,-454 1294,-290 3073,-490 5076,-546l0 -3973c-2150,-164 -4358,-761 -6186,-1995 -1592,-1074 -2894,-2628 -3617,-4793 -87,-259 -155,-710 -204,-1191 -69,-666 -104,-1396 -104,-1744l0 -5668c-111,32 -229,44 -344,38 -232,-11 -464,-92 -630,-215 -45,-33 -85,-69 -119,-107 -50,-55 -75,-124 -75,-193l-1 0 0 -408c-28,-1 -54,-2 -79,-3 -60,-2 -109,-4 -168,-4 -237,0 -456,-82 -617,-214 -176,-145 -286,-349 -286,-578 0,-229 109,-433 286,-578 161,-132 379,-214 617,-214 56,0 112,-3 182,-6 21,-1 42,-2 65,-3l0 -472c0,-101 52,-190 131,-241 170,-132 452,-249 743,-249 244,0 499,77 713,284 58,56 87,131 87,206l1 0 0 276 947 12c10,0 20,1 29,2l0 -246c0,-101 52,-190 131,-241 170,-132 452,-249 743,-249 244,0 499,77 713,284 13,12 24,25 34,39 39,-107 83,-204 133,-289 42,-80 121,-138 215,-151l0 -10695c0,-737 792,-3219 2834,-4950 1221,-1035 2886,-1813 5091,-1813 2194,0 3795,772 4942,1802 1935,1738 2561,4237 2562,4969l1 10685 228 0 0 0c97,0 192,50 246,139 25,42 49,86 71,134 190,-141 403,-195 609,-195 291,0 573,117 743,249 79,51 131,140 131,241l0 243 976 -14 0 -272 1 0c0,-75 29,-150 87,-206 214,-207 469,-284 713,-284 291,0 573,117 743,249 79,51 131,140 131,241l0 472c23,1 44,2 65,3 70,3 126,6 182,6 237,0 456,82 617,214 176,145 286,349 286,578 0,229 -109,433 -286,578 -161,132 -379,214 -617,214 -59,0 -108,2 -168,4 -25,1 -51,2 -79,3l0 408 -1 0c0,69 -25,138 -75,193 -34,38 -74,73 -119,107 -165,123 -398,204 -630,215 -186,9 -377,-27 -541,-121l0 5792c0,348 -36,1078 -104,1744 -50,481 -117,932 -204,1191 -703,2107 -1962,3635 -3505,4706 -1774,1232 -3919,1855 -6020,2058l0 3995c2022,53 3821,252 5130,543 797,177 1425,402 1835,663l9 -14zm-15524 312l7 17c-149,62 -305,146 -462,245 -64,61 -98,122 -98,182 0,307 841,630 2201,904 1482,299 3538,484 5816,484 2278,0 4334,-185 5816,-484 1360,-274 2201,-597 2201,-904 0,-37 -13,-74 -37,-111 -80,-58 -161,-115 -242,-170l15 -22c-312,-185 -889,-370 -1659,-542 -1272,-283 -3027,-477 -5006,-530l0 1216c0,115 -68,215 -165,261 -357,194 -680,285 -997,282 -327,-4 -632,-106 -947,-296 -90,-54 -139,-149 -139,-246l0 0 0 -1214c-1958,56 -3692,250 -4950,532 -566,127 -1025,261 -1351,397zm-1064 709c-80,67 -158,135 -233,204 -439,403 -764,781 -764,898 0,301 1007,624 2634,902 1759,301 4195,486 6890,486 2695,0 5131,-186 6890,-486 1628,-278 2634,-601 2634,-902 0,-88 -177,-302 -452,-572 -161,-159 -353,-329 -562,-499 -271,487 -1208,892 -2583,1170 -1523,307 -3620,498 -5928,498 -2308,0 -4405,-190 -5928,-498 -1404,-283 -2351,-700 -2599,-1201zm7655 -10389l1391 0c1139,-106 2299,-423 3278,-1042 957,-604 1744,-1500 2169,-2774 41,-122 76,-362 103,-627 39,-383 60,-810 60,-1017l0 -5307 -12611 0 0 5307c0,206 21,633 60,1017 27,265 62,505 103,627 425,1273 1212,2169 2169,2774 979,618 2139,936 3278,1042zm1959 510l0 3091c1994,-199 4022,-792 5691,-1952 352,-245 689,-515 1006,-812 1628,-2406 1490,-6425 1356,-10329 -20,-571 -39,-1140 -53,-1702 -89,25 -183,41 -277,46 -190,9 -384,-28 -550,-126 -59,183 -129,326 -209,410 -53,60 -130,97 -216,97l-1130 0 0 5307c0,213 -22,663 -65,1075 -31,300 -74,584 -130,751 -471,1412 -1345,2406 -2407,3077 -912,576 -1963,911 -3016,1065zm-2249 3118l0 -3081c-1145,-134 -2302,-475 -3295,-1102 -1063,-671 -1936,-1665 -2407,-3077 -56,-167 -99,-450 -130,-751 -42,-412 -65,-862 -65,-1075l0 -5307 -725 0 0 -1c-59,0 -119,-18 -170,-56 -114,-84 -211,-283 -285,-551 -14,14 -27,28 -41,41 -190,173 -442,238 -687,227 -81,-4 -163,-16 -241,-36 -14,601 -35,1211 -56,1824 -134,3918 -273,7953 1374,10356l-21 14c282,246 577,473 884,680 1726,1165 3819,1733 5865,1895zm576 -3030l0 9198c177,89 345,136 515,138 179,2 369,-45 582,-144l0 -9211c-229,20 -457,32 -682,36 -4,0 -8,0 -11,0 -134,-3 -268,-8 -404,-16zm22854 -37611c-155,-136 -398,-71 -464,124 -36,111 -5,230 83,307l48 42 47 42 47 43 47 43 47 43 47 43 47 43 47 43 47 43 46 44 46 44 46 44 46 44 46 44 46 44 46 44 45 45 45 45 45 45 45 45 45 45 45 45 45 45 44 46 44 46 44 46 44 46 44 46 44 46 43 46 43 47 43 47 43 47 43 47 43 47 43 47 42 47 42 48 42 48 42 48 42 48 42 48 42 48 41 48 25 30c135,158 387,126 478,-61 50,-104 35,-225 -40,-313l-25 -30 -43 -50 -43 -50 -43 -50 -43 -49 -43 -49 -43 -49 -44 -49 -44 -49 -44 -49 -44 -49 -44 -48 -44 -48 -44 -48 -45 -48 -45 -48 -45 -48 -45 -48 -45 -47 -45 -47 -46 -47 -46 -47 -46 -47 -46 -47 -46 -46 -46 -46 -46 -46 -47 -46 -47 -46 -47 -46 -47 -46 -47 -45 -47 -45 -47 -45 -48 -45 -48 -45 -48 -45 -48 -45 -48 -44 -48 -44 -48 -44 -49 -44 -49 -44 -49 -44 -49 -43zm-4238 25457c-151,135 -121,378 58,472 106,54 233,39 323,-40 151,-134 299,-270 444,-410 145,-140 287,-282 427,-428 128,-135 254,-271 378,-410 123,-140 243,-281 362,-425 118,-144 233,-290 345,-439 171,-228 336,-459 494,-696 113,-172 16,-403 -187,-442 -115,-21 -228,27 -293,124 -226,339 -466,667 -721,985 -112,139 -226,276 -343,411 -127,146 -257,289 -389,430 -133,141 -268,278 -407,413 -64,62 -129,124 -194,185 -98,91 -197,181 -297,270zm3664 -5186c-75,188 61,392 264,395 120,1 226,-70 271,-181 119,-294 226,-592 325,-893 59,-182 114,-364 167,-547 48,-169 92,-339 134,-510 70,-289 131,-578 183,-871 35,-203 -145,-375 -346,-331 -114,26 -200,116 -221,231 -55,311 -121,618 -197,924 -45,178 -93,355 -144,532 -22,73 -44,146 -66,219 -109,348 -230,693 -367,1031zm983 -5515c7,221 248,353 438,238 89,-55 140,-149 138,-254 -2,-100 -7,-199 -11,-299 -11,-214 -26,-427 -45,-640 -17,-179 -37,-357 -60,-536 -23,-177 -50,-353 -79,-530 -27,-159 -57,-317 -89,-476 -39,-189 -81,-376 -127,-564 -39,-155 -79,-309 -122,-463 -57,-199 -117,-396 -181,-593 -50,-150 -102,-299 -156,-448 -66,-178 -134,-354 -206,-529 -30,-73 -61,-145 -92,-217 -56,-129 -114,-257 -174,-385 -87,-182 -326,-223 -468,-78 -83,87 -105,213 -54,323 70,150 137,301 202,453 77,181 149,363 219,547 58,157 114,314 167,472 63,188 121,377 176,568 46,162 89,325 130,488 48,195 91,390 131,586 30,152 58,304 84,457 30,185 57,369 80,555 21,172 39,343 54,515 16,190 28,378 37,568 3,80 7,160 9,240zm-2738 -7864c122,161 363,152 473,-17 65,-102 60,-232 -12,-328 -262,-350 -540,-687 -833,-1012 -125,-138 -252,-273 -382,-407 -130,-133 -262,-263 -397,-392 -124,-117 -249,-232 -377,-345 -155,-137 -397,-71 -464,124 -36,111 -5,230 82,307 145,129 287,259 426,393 139,134 275,271 410,411 123,129 244,260 363,394 248,282 486,572 711,872zm1373 18890c-94,111 -92,271 4,379 117,130 319,127 434,-5 131,-153 258,-307 384,-463 114,-144 226,-288 336,-435 110,-147 217,-296 323,-446 105,-151 208,-303 308,-457 100,-155 198,-310 294,-468 95,-158 188,-317 279,-478 90,-161 178,-323 263,-487 85,-165 167,-330 248,-497 72,-151 141,-302 209,-455 75,-170 147,-341 217,-514 41,-103 81,-205 121,-308 72,-190 -69,-392 -273,-390 -119,2 -223,75 -266,186 -70,184 -143,366 -219,547 -77,182 -157,362 -240,541 -76,162 -154,323 -235,483 -81,159 -164,317 -250,474 -95,172 -192,341 -292,510 -101,168 -203,334 -310,498 -97,149 -195,296 -296,443 -112,160 -225,318 -342,475 -96,128 -193,254 -292,379 -132,166 -267,329 -405,491zm3650 -7558c-27,142 55,281 192,327 166,55 341,-48 374,-219 66,-343 120,-688 165,-1035 22,-173 41,-345 58,-518 5,-58 11,-116 16,-174 33,-394 54,-789 60,-1184 2,-131 -84,-246 -210,-281 -182,-50 -362,84 -365,273 -6,344 -23,688 -49,1031 -14,168 -29,335 -48,503l-13 111c-46,391 -105,779 -179,1166zm94 -5631c23,141 143,243 286,243 177,-1 310,-158 283,-333 -43,-276 -93,-549 -150,-822 -39,-186 -81,-370 -125,-555 -36,-147 -74,-293 -113,-439 -50,-182 -102,-362 -157,-542 -56,-179 -114,-357 -175,-534 -55,-159 -112,-317 -172,-474 -67,-174 -135,-347 -207,-519 -72,-171 -146,-341 -224,-510 -77,-169 -157,-335 -240,-501 -104,-208 -212,-414 -324,-618 -105,-188 -370,-200 -491,-22 -61,91 -66,205 -13,300 143,260 278,522 407,789 78,162 152,324 225,488 72,165 142,330 210,496 67,167 131,335 193,504 62,170 121,340 177,512 56,173 110,346 160,520 51,175 98,350 143,527 40,160 78,319 114,480 20,90 39,179 57,269 50,247 95,493 134,742zm-3395 -7675c105,130 295,144 419,32 112,-103 125,-274 30,-393 -256,-319 -523,-627 -801,-927 -125,-134 -251,-266 -380,-396 -116,-117 -234,-232 -353,-346 -146,-139 -294,-275 -445,-409l-41 -36c-145,-127 -368,-80 -451,94 -54,117 -26,253 70,338 146,129 289,260 431,394 141,134 280,270 417,409 137,139 270,280 402,423 243,266 477,538 702,818zm1689 23496c-139,153 -78,398 118,466 110,38 229,8 307,-78l34 -37 44 -48 44 -49 44 -49 44 -49 44 -49 43 -49 43 -49 43 -49 43 -50 43 -50 43 -50 42 -50 42 -50 42 -50 42 -50 42 -50 42 -51 41 -51 41 -51 41 -51 41 -51 41 -51 41 -51 40 -52 40 -52 40 -52 40 -52 40 -52 40 -52 40 -52 39 -53 39 -53 39 -53 39 -53 39 -53 38 -53 38 -53 38 -53 38 -54 38 -54 38 -54 37 -54 37 -54 29 -42c118,-174 17,-412 -191,-447 -112,-18 -220,29 -284,122l-28 40 -36 53 -36 52 -37 52 -37 52 -37 52 -37 52 -37 52 -37 52 -38 52 -38 51 -38 51 -38 51 -38 51 -38 51 -39 51 -39 51 -39 51 -39 50 -39 50 -39 50 -39 50 -40 50 -40 50 -40 50 -40 49 -40 49 -40 49 -41 49 -41 49 -41 49 -41 49 -41 49 -41 48 -42 48 -42 48 -42 48 -42 48 -42 48 -42 48 -42 47 -43 47 -43 47 -43 47 -34 37zm3192 -4669c-82,170 17,370 202,408 130,26 258,-38 316,-157 86,-177 170,-354 251,-534 73,-162 144,-324 213,-487 69,-164 135,-328 200,-493 65,-166 127,-332 188,-500 53,-147 104,-294 154,-442 64,-191 124,-383 183,-575 51,-172 101,-344 148,-518 47,-174 92,-348 135,-523 21,-88 42,-176 62,-264 91,-401 171,-804 238,-1210 33,-205 -155,-376 -356,-325 -111,29 -194,119 -213,233 -68,415 -151,828 -246,1238 -40,171 -82,340 -126,510 -44,169 -91,337 -139,505 -55,188 -112,375 -172,561 -54,165 -109,329 -166,493 -58,163 -117,325 -179,487 -62,161 -126,321 -192,481 -74,179 -151,356 -230,533 -35,78 -71,156 -107,234 -54,115 -108,230 -164,344zm1980 -8211c-3,208 208,351 400,270 105,-45 173,-146 176,-260l1 -52 1 -70 1 -70 1 -71 0 -71 0 -71 0 -71 0 -71 -1 -71 -1 -70 -1 -70 -1 -70 -2 -70 -2 -70 -2 -70 -2 -70 -3 -70 -3 -70 -3 -70 -3 -70 -3 -70 -4 -70 -4 -70 -4 -70 -4 -70 -5 -69 -5 -69 -5 -69 -5 -69 -6 -69 -6 -69 -6 -69 -6 -69 -7 -69 -7 -69 -7 -69 -7 -69 -7 -69 -8 -69 -8 -69 -8 -68 -9 -75c-19,-150 -151,-259 -302,-251 -167,10 -290,158 -270,324l9 71 8 67 8 67 7 67 7 67 7 67 7 67 7 67 6 67 6 67 6 67 6 67 5 67 5 67 5 67 5 67 5 68 4 68 4 68 4 68 4 68 3 68 3 68 3 68 3 68 2 68 2 68 2 68 2 68 2 68 1 68 1 68 1 68 1 69 0 69 0 69 0 69 0 69 -1 69 -1 68 -1 68 -1 52zm-698 -5614c56,203 303,279 464,143 85,-73 121,-187 91,-296 -24,-87 -49,-174 -74,-260 -57,-194 -115,-386 -177,-578 -55,-170 -112,-339 -171,-507 -60,-168 -121,-335 -184,-501 -64,-166 -129,-331 -197,-495 -68,-164 -138,-326 -210,-488 -63,-141 -128,-282 -194,-422 -85,-180 -173,-357 -263,-535 -70,-137 -142,-274 -215,-410 -94,-174 -191,-347 -289,-518 -44,-76 -89,-152 -133,-227 -78,-130 -156,-259 -237,-387 -110,-175 -361,-181 -480,-12 -66,96 -70,219 -8,318 101,161 199,323 295,486 97,166 192,333 284,502 82,150 162,301 241,453 88,172 173,344 257,518 74,155 146,311 216,468 79,177 154,355 228,534 57,140 113,280 167,421 69,182 136,364 201,548 50,143 98,287 145,432 60,187 117,373 172,561 24,84 49,168 71,253zm-49281 -9579c155,-138 119,-388 -69,-477 -105,-48 -226,-31 -312,45l-49 43 -49 44 -49 44 -49 44 -48 44 -48 44 -48 44 -48 45 -48 45 -48 45 -48 45 -47 45 -47 45 -47 45 -47 46 -47 46 -47 46 -47 46 -46 46 -46 46 -46 46 -46 47 -46 47 -46 47 -46 47 -45 47 -45 47 -45 48 -45 48 -45 48 -45 48 -44 48 -44 48 -44 48 -44 49 -44 49 -44 49 -44 49 -43 49 -43 49 -43 49 -43 50 -43 50 -43 50 -25 30c-141,167 -54,422 159,468 104,22 210,-14 279,-95l25 -30 41 -48 42 -48 42 -48 42 -48 42 -48 42 -48 42 -48 42 -47 43 -47 43 -47 43 -47 43 -47 43 -47 43 -47 43 -46 44 -46 44 -46 44 -46 44 -46 44 -46 44 -46 45 -45 45 -45 45 -45 45 -45 45 -45 45 -45 45 -45 46 -44 46 -44 46 -44 46 -44 46 -44 46 -44 46 -44 47 -43 47 -43 47 -43 47 -43 47 -43 47 -43 47 -43 48 -42 48 -42zm3476 25457c155,137 397,71 464,-124 36,-111 5,-230 -82,-307 -145,-129 -287,-259 -426,-393 -139,-134 -275,-271 -410,-411 -123,-129 -244,-260 -363,-394 -128,-145 -253,-292 -375,-443 -56,-69 -112,-139 -167,-210 -214,-274 -417,-555 -610,-845 -118,-176 -378,-171 -487,12 -57,96 -54,213 7,306 192,289 395,570 607,844 114,147 231,291 351,434 130,154 262,305 398,455 136,149 275,294 417,437 142,143 287,282 435,419 80,74 160,146 241,218zm-3817 -5403c79,195 333,243 477,90 76,-83 99,-200 57,-304 -114,-282 -217,-568 -312,-857 -57,-174 -110,-349 -160,-525 -25,-89 -49,-177 -72,-266 -91,-350 -168,-702 -231,-1058 -36,-201 -259,-301 -434,-196 -101,63 -154,178 -133,295 71,403 161,801 266,1196 50,185 103,368 159,550 14,45 29,91 43,136 103,316 215,630 339,938zm-1024 -5745c-3,140 92,261 229,290 176,36 341,-94 347,-274 3,-127 9,-255 16,-382 10,-174 23,-346 38,-520 18,-188 39,-374 63,-561 23,-170 49,-339 78,-508 27,-153 55,-304 87,-456 41,-196 86,-390 135,-585 45,-178 94,-355 146,-531 52,-175 108,-349 167,-522 54,-158 111,-314 170,-471 71,-184 145,-365 222,-546 54,-124 109,-247 167,-370 85,-184 -39,-395 -241,-410 -120,-8 -229,57 -281,165 -80,171 -156,342 -229,515 -73,175 -143,350 -210,527 -61,163 -119,327 -174,492 -55,166 -107,332 -157,500 -49,169 -95,337 -139,508 -43,171 -83,342 -120,515 -37,174 -71,347 -102,522 -33,192 -63,384 -89,577 -24,178 -44,356 -62,535 -17,180 -31,360 -42,541 -5,83 -9,165 -12,248 -3,67 -5,133 -7,200zm2853 -8194c-72,97 -77,227 -12,328 110,169 351,178 473,17 243,-324 500,-637 770,-939 120,-133 241,-263 365,-392 135,-139 272,-274 412,-408 119,-113 239,-223 362,-332 151,-135 121,-378 -58,-472 -106,-54 -233,-39 -323,40 -151,134 -299,270 -444,410 -145,140 -287,282 -427,428 -128,135 -254,271 -378,410 -259,293 -506,595 -740,908zm-1350 19609c113,131 312,135 430,9 100,-108 103,-271 8,-383 -138,-161 -273,-324 -405,-491 -121,-153 -239,-307 -355,-464 -116,-157 -228,-316 -339,-477 -110,-162 -217,-324 -322,-490 -114,-181 -224,-363 -332,-548 -89,-155 -176,-310 -260,-467 -84,-158 -166,-316 -245,-476 -87,-177 -171,-354 -252,-534 -51,-115 -101,-230 -151,-345 -76,-181 -149,-363 -219,-547 -74,-192 -318,-248 -468,-106 -84,81 -111,201 -70,310 66,173 134,344 206,515 72,171 146,341 224,510 78,169 157,335 240,501 83,166 168,329 255,492 88,162 178,323 271,483 93,159 188,316 286,473 98,156 198,310 301,462 113,168 229,333 348,496 108,148 218,295 331,440 124,159 251,316 380,471 47,55 93,111 140,166zm-3778 -7824c41,215 295,307 465,169 82,-68 121,-172 101,-277 -71,-368 -127,-738 -173,-1111 -22,-186 -41,-371 -57,-557 -14,-169 -26,-337 -36,-506 -11,-212 -19,-424 -23,-637 -3,-211 -223,-347 -413,-255 -101,50 -164,150 -163,263 5,318 20,635 42,952 16,213 35,425 58,637l13 115c48,405 109,807 186,1207zm-97 -5829c-32,204 154,375 355,324 112,-29 195,-120 214,-234 39,-248 84,-495 134,-742 37,-180 77,-358 119,-537 39,-160 79,-319 122,-477 53,-193 109,-384 168,-575 54,-173 111,-344 170,-515 60,-170 122,-339 187,-508 59,-151 119,-301 182,-450 77,-182 157,-362 240,-541 38,-81 76,-162 115,-242 122,-250 249,-497 384,-740 95,-174 -6,-386 -201,-423 -123,-21 -243,35 -303,144 -130,236 -254,475 -373,717 -81,167 -160,334 -236,503 -68,153 -135,306 -199,460 -71,172 -139,345 -205,520 -66,175 -128,351 -189,528 -60,178 -117,356 -171,536 -49,163 -95,325 -139,489 -49,183 -95,366 -138,550 -43,185 -83,371 -120,557 -43,218 -81,435 -116,655zm3515 -7946c-131,163 -50,406 152,459 111,28 225,-10 297,-98 269,-336 552,-660 847,-974 134,-142 269,-281 408,-418 101,-99 203,-198 306,-295 129,-121 260,-240 393,-357 158,-140 118,-396 -76,-481 -103,-44 -220,-25 -304,48 -137,121 -273,244 -406,370 -133,126 -264,253 -394,383 -129,130 -256,261 -382,395 -125,134 -248,270 -369,407 -160,184 -317,370 -470,560zm-1665 24246c88,96 227,121 343,62 170,-87 210,-310 82,-451l-34 -37 -43 -47 -43 -47 -43 -47 -42 -47 -42 -48 -42 -48 -42 -48 -42 -48 -42 -48 -42 -48 -41 -48 -41 -49 -41 -49 -41 -49 -41 -49 -41 -49 -40 -49 -40 -49 -40 -49 -40 -50 -40 -50 -40 -50 -39 -50 -39 -50 -39 -50 -39 -50 -39 -51 -39 -51 -39 -51 -38 -51 -38 -51 -38 -51 -38 -51 -38 -51 -38 -52 -37 -52 -37 -52 -37 -52 -37 -52 -37 -52 -37 -52 -36 -52 -36 -53 -28 -40c-116,-167 -361,-167 -476,1 -66,99 -66,225 0,324l29 42 37 54 37 54 38 54 38 54 38 54 38 53 38 53 38 53 39 53 39 53 39 53 39 53 39 53 40 52 40 52 40 52 40 52 40 52 40 52 40 52 41 51 41 51 41 51 41 51 41 51 41 51 42 51 42 50 42 50 42 50 42 50 42 50 43 50 43 50 43 50 43 49 43 49 43 49 44 49 44 49 44 49 44 49 44 48 34 37zm-3285 -4807c89,181 329,218 469,72 82,-88 102,-215 49,-323 -84,-172 -165,-345 -245,-520 -80,-177 -157,-354 -232,-532 -66,-159 -131,-319 -193,-480 -62,-162 -122,-323 -181,-486 -58,-164 -114,-327 -168,-492 -54,-166 -105,-331 -155,-498 -43,-146 -85,-293 -125,-440 -51,-190 -100,-381 -146,-572 -41,-171 -79,-342 -116,-514 -59,-283 -113,-567 -160,-852 -22,-133 -131,-232 -265,-241 -185,-12 -333,150 -304,333 63,384 138,765 223,1144 40,176 82,351 126,527 45,174 91,348 140,521 49,173 100,344 153,516 47,149 95,298 145,446 65,190 131,379 201,567 54,146 110,291 168,436 74,185 151,369 230,553 53,122 107,243 162,364 73,159 147,316 224,473zm-2038 -8452c4,210 223,345 412,255 102,-49 165,-152 163,-265l-1 -52 -1 -68 -1 -68 -1 -69 0 -69 0 -69 0 -69 0 -69 1 -69 1 -68 1 -68 1 -68 2 -68 2 -68 2 -68 2 -68 2 -68 3 -68 3 -68 3 -68 3 -68 4 -68 4 -68 4 -68 4 -68 5 -68 5 -67 5 -67 5 -67 5 -67 6 -67 6 -67 6 -67 6 -67 7 -67 7 -67 7 -67 7 -67 7 -67 8 -67 8 -67 9 -71c26,-209 -172,-374 -373,-311 -107,35 -184,126 -198,238l-9 75 -8 68 -8 69 -8 69 -7 69 -7 69 -7 69 -7 69 -7 69 -6 69 -6 69 -6 69 -6 69 -5 69 -5 69 -5 69 -5 69 -4 70 -4 70 -4 70 -4 70 -3 70 -3 70 -3 70 -3 70 -3 70 -2 70 -2 70 -2 70 -2 70 -1 70 -1 70 -1 70 -1 71 0 71 0 71 0 71 0 71 1 71 1 70 1 70 1 52zm719 -5776c-55,201 114,391 320,361 113,-17 204,-98 235,-208 23,-84 47,-169 71,-253 61,-209 125,-416 192,-623 54,-165 110,-329 168,-492 58,-163 118,-325 181,-486 63,-161 127,-321 193,-480 75,-179 152,-356 232,-532 80,-176 162,-350 247,-524 76,-154 153,-306 232,-459 80,-152 161,-302 244,-452 104,-187 211,-371 320,-554 65,-108 130,-215 197,-321 100,-160 23,-370 -157,-427 -126,-39 -261,10 -331,122 -104,166 -204,332 -304,501 -100,171 -197,343 -293,516 -74,135 -146,271 -217,408 -91,177 -180,354 -266,533 -67,140 -132,279 -196,420 -82,182 -161,364 -239,548 -60,144 -118,287 -175,432 -73,187 -143,374 -210,563 -60,168 -117,337 -173,507 -55,170 -109,341 -160,513 -32,108 -63,215 -93,323l-18 66zm18751 14114c5,232 7,466 7,703l499 6 0 -702 -506 -6zm7 989c-1,161 -3,323 -5,486 72,38 162,62 255,66 93,4 183,-12 249,-58l0 -489 -499 -6zm-25 11847c-842,-2490 -730,-5758 -621,-8950 25,-738 50,-1472 64,-2190 -11,-31 -16,-63 -16,-95l-1 0 0 -1666c-12,1 -24,2 -36,2l-871 -11 0 7777c0,341 34,1048 100,1685 46,446 106,854 177,1068 302,904 711,1694 1203,2381zm18864 -12943c-22,1216 22,2511 67,3819 105,3051 211,6170 -514,8613 345,-561 638,-1183 867,-1871 71,-214 131,-622 177,-1068 66,-637 100,-1345 100,-1685l0 -7819 -697 10zm2638 640l57 -2c90,-4 164,-7 190,-7 102,0 191,-31 252,-81 46,-38 74,-86 74,-135 0,-50 -28,-98 -74,-135 -61,-50 -150,-81 -252,-81 -36,0 -114,-4 -209,-8l-38 -2 0 453zm-3226 415l-522 6 0 489c66,45 156,62 249,58 100,-5 198,-33 273,-76l0 -477zm-522 -281l522 -6 0 -702 -522 6 0 702zm3173 237l-522 6 0 489c66,45 156,62 249,58 100,-5 198,-33 273,-76l0 -477zm-522 -281l522 -6 0 -702 -522 6 0 702zm0 -989l522 -6 0 -441c-82,-39 -187,-68 -298,-68 -77,0 -154,16 -225,55l0 460zm-23628 488l-38 2c-95,5 -173,8 -209,8 -102,0 -191,31 -252,81 -46,38 -74,86 -74,135 0,50 28,98 74,135 61,50 150,81 252,81 27,0 100,3 190,7l57 2 0 -453zm3226 -409l522 6 0 -460c-71,-39 -148,-55 -225,-55 -111,0 -216,29 -298,68l0 441zm-2651 946l522 6 0 -702 -522 -6 0 702zm522 293l-522 -6 0 477c75,44 173,72 273,76 93,4 183,-12 249,-58l0 -489zm-522 -1283l522 6 0 -460c-71,-39 -148,-55 -225,-55 -111,0 -216,29 -298,68l0 441zm4618 -11853l0 10692 14281 0 -1 -10685c-1,-661 -581,-2932 -2373,-4541 -1052,-945 -2527,-1654 -4557,-1654 -2049,0 -3592,719 -4720,1676 -1895,1607 -2629,3852 -2629,4512zm7274 14063l7682 0c99,-189 162,-747 162,-1354 0,-538 -63,-1091 -211,-1442l-15266 0c-149,351 -211,903 -211,1442 0,606 63,1165 162,1354l7682 0z"/></g></svg>